PathFileType  4	(X/Y/Z) C:\Users\antoi\Documents\MyRepositories\mobilecap\ResultsAnalysis
DataRate	CameraRate	NumFrames	NumMarkers	Units	OrigDataRate	OrigDataStartFrame	OrigNumFrames
100.0	100.0	5	55	mm	100.0	489	781
Frame#	Time	r_knee			r_shank_antsup			r_ankle			r_calc			r_5meta			r_toe			L_knee			L_shank_antsup			L_ankle			L_calc			L_5meta			L_toe			r_mknee			r_mankle			L_mknee			L_mankle			r_sh2			r_sh3			r_sh4			L_sh2			L_sh3			r_thigh1			r_thigh2			r_thigh3			r_thigh4			r_thigh5			L_thigh1			L_thigh2			L_thigh3			L_thigh4			r.ASIS			r.PSIS			L.ASIS			L.PSIS			C7			R_Shoulder			L_Shoulder			R_Sternum			L_Sternum			R_humerus			R_elbow_med			R_elbow_lat			R_forearm			R_wrist_radius			R_wrist_ulna			L_humerus			L_elbow_med			L_elbow_lat			L_forearm			L_wrist_radius			L_wrist_ulna			R_HJC			L_HJC			R_HJC_reg			L_HJC_reg			
		X1	Y1	Z1	X2	Y2	Z2	X3	Y3	Z3	X4	Y4	Z4	X5	Y5	Z5	X6	Y6	Z6	X7	Y7	Z7	X8	Y8	Z8	X9	Y9	Z9	X10	Y10	Z10	X11	Y11	Z11	X12	Y12	Z12	X13	Y13	Z13	X14	Y14	Z14	X15	Y15	Z15	X16	Y16	Z16	X17	Y17	Z17	X18	Y18	Z18	X19	Y19	Z19	X20	Y20	Z20	X21	Y21	Z21	X22	Y22	Z22	X23	Y23	Z23	X24	Y24	Z24	X25	Y25	Z25	X26	Y26	Z26	X27	Y27	Z27	X28	Y28	Z28	X29	Y29	Z29	X30	Y30	Z30	X31	Y31	Z31	X32	Y32	Z32	X33	Y33	Z33	X34	Y34	Z34	X35	Y35	Z35	X36	Y36	Z36	X37	Y37	Z37	X38	Y38	Z38	X39	Y39	Z39	X40	Y40	Z40	X41	Y41	Z41	X42	Y42	Z42	X43	Y43	Z43	X44	Y44	Z44	X45	Y45	Z45	X46	Y46	Z46	X47	Y47	Z47	X48	Y48	Z48	X49	Y49	Z49	X50	Y50	Z50	X51	Y51	Z51	X52	Y52	Z52	X53	Y53	Z53	X54	Y54	Z54	X55	Y55	Z55	

489	4.88000000	-259.22955	471.77740	-729.06270	-255.18302	400.45871	-700.24290	-273.73381	91.92644	-720.54054	-339.93483	52.77273	-757.72815	-170.34689	44.03875	-686.92347	-128.06536	62.64701	-743.42377	-281.69910	457.20273	-1060.55248	-263.67021	402.49418	-1072.45391	-283.29194	91.66826	-1080.57754	-348.74660	55.43296	-1032.78061	-191.72361	40.01717	-1116.12193	-139.25967	62.17290	-1063.97711	-254.16976	453.94953	-844.46313	-265.50161	92.91139	-797.77174	-256.57824	443.59536	-956.14332	-264.12918	97.51308	-998.47131	-256.88933	290.68473	-690.52491	-329.23281	400.88155	-715.61489	-335.96699	283.01017	-709.15859	-351.79615	408.62514	-1085.85900	-344.45380	287.63211	-1098.99201	-165.84965	772.14148	-754.33387	-169.13389	661.54038	-740.07205	-220.19665	647.04593	-697.82733	-262.34686	784.35046	-700.71340	-271.74638	665.80216	-702.29672	-173.25622	734.94009	-1065.80391	-187.95484	594.59628	-1063.88748	-288.57604	743.41802	-1093.22805	-293.56642	601.88785	-1083.66319	-169.13073	920.12657	-772.69209	-349.06964	935.36741	-857.68215	-155.97858	901.23671	-1031.60027	-346.64650	923.87019	-965.17803	-332.33689	1388.42967	-905.12487	-267.44340	1348.74857	-745.19604	-257.73560	1348.44522	-1069.69950	-202.41862	1325.59625	-884.39545	-202.99060	1325.55778	-926.85175	-241.69895	1109.28917	-665.72572	-274.51514	1004.82794	-719.34617	-269.44820	1024.63139	-650.82908	-215.29914	918.10724	-618.62962	-187.87433	801.19149	-605.66208	-230.67423	794.30070	-601.39362	-208.89892	1221.05640	-1117.53501	-234.96567	1009.69279	-1072.20812	-237.62541	1016.88774	-1132.01562	-190.22182	925.78405	-1169.96523	-166.55187	800.80492	-1171.73908	-202.27643	790.55050	-1173.67373	-235.08006	843.84788	-800.02255	-222.14981	831.74954	-999.53061	-230.53305	839.98980	-802.48666	-226.68887	821.74999	-973.02430	
490	4.89000000	-259.24267	471.86983	-729.14992	-255.18889	400.37455	-700.20250	-273.70744	91.89895	-720.52173	-339.93045	52.75867	-757.69088	-170.35507	43.98734	-686.97935	-128.03727	62.66333	-743.36214	-281.69844	457.21393	-1060.56426	-263.65219	402.53215	-1072.50807	-283.25818	91.68202	-1080.61657	-348.74891	55.44112	-1032.76775	-191.71727	40.03787	-1116.11069	-139.25820	62.15987	-1063.93880	-254.27908	453.90618	-844.52203	-265.50181	92.91593	-797.70848	-256.57764	443.62136	-956.17528	-264.15073	97.50108	-998.46197	-256.89195	290.65583	-690.51056	-329.23971	400.88696	-715.61741	-336.02966	282.92200	-709.17810	-351.78545	408.62263	-1085.89988	-344.43205	287.66417	-1099.02649	-165.89108	772.17660	-754.33778	-169.19052	661.56527	-740.07653	-220.23278	647.06523	-697.92458	-262.48499	784.47365	-700.65775	-271.84664	665.83956	-702.17830	-173.25815	734.94450	-1065.80774	-187.95794	594.68306	-1063.99846	-288.61484	743.42739	-1093.24693	-293.62090	601.90990	-1083.74301	-169.18443	920.07936	-772.71178	-349.06853	935.31840	-857.74598	-156.02454	901.24994	-1031.58496	-346.67502	923.86543	-965.17672	-332.40420	1388.42134	-905.06551	-267.43258	1348.73935	-745.18742	-257.77281	1348.48176	-1069.64714	-202.48140	1325.62327	-884.30701	-203.03680	1325.56841	-926.77464	-241.82150	1109.30945	-665.63311	-274.59901	1004.81749	-719.28966	-269.53238	1024.62789	-650.76120	-215.43492	918.11713	-618.59930	-188.04255	801.17232	-605.60343	-230.90697	794.28850	-601.25590	-208.87623	1221.12199	-1117.50316	-234.84795	1009.69409	-1072.19173	-237.53983	1016.94195	-1131.95428	-190.05713	925.84681	-1169.85016	-166.26095	800.91474	-1171.62674	-202.07572	790.59001	-1173.49879	-235.11808	843.80222	-800.05505	-222.17071	831.74999	-999.56479	-230.54200	839.94399	-802.50845	-226.74291	821.76530	-973.02784	
491	4.90000000	-259.25963	471.92828	-729.18952	-255.21336	400.34218	-700.18301	-273.66537	91.89665	-720.50049	-339.93109	52.75693	-757.65118	-170.32773	43.94995	-687.02394	-128.02126	62.68398	-743.30633	-281.70131	457.23367	-1060.56373	-263.64457	402.55423	-1072.50281	-283.24480	91.70860	-1080.63941	-348.72812	55.48413	-1032.77178	-191.71234	40.06205	-1116.09610	-139.23693	62.17939	-1063.90880	-254.36816	453.86728	-844.54543	-265.49670	92.92680	-797.60961	-256.58088	443.64145	-956.19595	-264.15424	97.49538	-998.46020	-256.89364	290.61759	-690.47798	-329.24799	400.89119	-715.62014	-336.07203	282.86401	-709.17961	-351.75765	408.61986	-1085.97394	-344.43238	287.68476	-1099.01043	-165.92313	772.20314	-754.34141	-169.23242	661.58455	-740.07858	-220.28022	647.04128	-698.02398	-262.63767	784.56111	-700.55208	-271.82771	665.58403	-702.26993	-173.24766	734.96525	-1065.80593	-187.98078	594.73199	-1064.05854	-288.64814	743.44779	-1093.26426	-293.66971	601.96188	-1083.84358	-169.23519	920.03909	-772.71654	-349.16912	935.27782	-857.77967	-156.06848	901.25172	-1031.55252	-346.70907	923.85743	-965.17069	-332.49670	1388.37731	-904.97686	-267.55344	1348.72170	-745.21481	-257.81698	1348.54694	-1069.61343	-202.57584	1325.64209	-884.15617	-203.07973	1325.57864	-926.68872	-241.95033	1109.34422	-665.56377	-274.67671	1004.78680	-719.26453	-269.64436	1024.62839	-650.76385	-215.59950	918.13391	-618.59578	-188.22496	801.16535	-605.50242	-231.04037	794.31539	-601.08835	-208.85572	1221.18065	-1117.48995	-234.81430	1009.71491	-1072.16818	-237.45965	1017.00073	-1131.90897	-189.89366	925.91881	-1169.70038	-166.00029	800.96799	-1171.44813	-201.86335	790.65558	-1173.40647	-235.18648	843.76396	-800.06475	-222.21106	831.74497	-999.57469	-230.63554	839.89398	-802.56820	-226.72995	821.76280	-973.06379	
492	4.91000000	-259.26522	471.92437	-729.19496	-255.25043	400.43033	-700.21210	-273.65012	91.87694	-720.50421	-339.93345	52.77407	-757.61767	-170.29132	43.94454	-687.02725	-128.03167	62.70727	-743.29985	-281.70858	457.26021	-1060.56381	-263.64398	402.57696	-1072.48854	-283.25017	91.73659	-1080.63173	-348.71228	55.52511	-1032.77254	-191.70889	40.08981	-1116.08165	-139.22629	62.19680	-1063.88011	-254.37673	453.85980	-844.54276	-265.48898	92.97176	-797.58886	-256.58438	443.66573	-956.22186	-264.14708	97.49223	-998.46134	-256.89481	290.60723	-690.46689	-329.25616	400.88711	-715.62923	-336.06992	282.84898	-709.17541	-351.73286	408.61875	-1086.02849	-344.42312	287.68497	-1098.97952	-165.95978	772.23821	-754.34612	-169.27603	661.60693	-740.09454	-220.33415	646.99467	-698.08724	-262.73005	784.52713	-700.47426	-271.84127	665.43232	-702.27787	-173.25418	734.99071	-1065.81786	-188.01987	594.73706	-1064.05157	-288.68951	743.47850	-1093.28306	-293.71059	602.00466	-1083.89388	-169.29044	920.04192	-772.72391	-349.29516	935.24737	-857.76188	-156.10096	901.27829	-1031.53671	-346.74956	923.85565	-965.16051	-332.58025	1388.35460	-904.89870	-267.80047	1348.69983	-745.22667	-257.87983	1348.63788	-1069.57171	-202.65784	1325.65899	-884.02848	-203.10737	1325.60076	-926.62469	-242.04932	1109.36863	-665.50213	-274.77634	1004.76849	-719.25379	-269.76283	1024.60376	-650.80843	-215.75569	918.13920	-618.56061	-188.39494	801.16438	-605.34753	-231.13231	794.30787	-601.03779	-208.82469	1221.24539	-1117.49096	-234.83277	1009.71376	-1072.17682	-237.36863	1017.04052	-1131.86559	-189.73721	925.99317	-1169.56978	-165.78184	801.01687	-1171.24463	-201.61327	790.76040	-1173.39625	-235.24221	843.75512	-800.06294	-222.24989	831.76163	-999.57331	-230.72594	839.85650	-802.64183	-226.68513	821.77355	-973.12371	
493	4.92000000	-259.27406	471.90462	-729.19360	-255.27862	400.52388	-700.25096	-273.64693	91.83325	-720.52428	-339.93245	52.80873	-757.60550	-170.29414	43.95796	-687.03910	-128.05084	62.72858	-743.31190	-281.71682	457.28366	-1060.56665	-263.64605	402.59434	-1072.47365	-283.24423	91.74731	-1080.61733	-348.71751	55.54331	-1032.75592	-191.70522	40.11894	-1116.06928	-139.24561	62.21365	-1063.85073	-254.35831	453.86581	-844.54248	-265.47949	93.02753	-797.61155	-256.58566	443.69196	-956.25689	-264.13971	97.48602	-998.46304	-256.90151	290.61360	-690.47662	-329.26558	400.87963	-715.64511	-336.06373	282.85355	-709.18128	-351.72820	408.62216	-1086.03616	-344.40529	287.70153	-1099.01071	-166.02765	772.27885	-754.32728	-169.31380	661.62311	-740.11098	-220.35851	646.95358	-698.10481	-262.78921	784.48942	-700.41098	-272.17882	666.29322	-701.47090	-173.26097	735.00771	-1065.82966	-188.05014	594.75235	-1064.03728	-288.74810	743.51449	-1093.29930	-293.73956	602.02872	-1083.88174	-169.35078	920.06529	-772.76413	-349.35618	935.20251	-857.72472	-156.13463	901.32605	-1031.53160	-346.79424	923.86411	-965.14324	-332.63673	1388.37584	-904.82708	-267.93905	1348.67548	-745.13351	-257.91953	1348.71368	-1069.53613	-202.69955	1325.68522	-883.97236	-203.11244	1325.63790	-926.58591	-242.17004	1109.33980	-665.44707	-274.94523	1004.73393	-719.23151	-269.90316	1024.55383	-650.83204	-215.85977	918.12172	-618.47184	-188.53615	801.17085	-605.15783	-231.25688	794.27111	-601.05870	-208.78688	1221.32051	-1117.50637	-234.81689	1009.71485	-1072.18195	-237.27171	1017.07068	-1131.77809	-189.58960	926.07188	-1169.48046	-165.59191	801.08385	-1171.09802	-201.37420	790.89891	-1173.47058	-235.26270	843.75445	-800.07035	-222.27777	831.79402	-999.58318	-230.73155	839.80976	-802.71617	-226.66603	821.81708	-973.17680	
